<svg width="30" height="24.39" viewBox="0 0 30 25" fill="none" xmlns="http://www.w3.org/2000/svg">
<path d="M9.4347 24.3903C20.756 24.3903 26.9472 15.0076 26.9472 6.87122C26.9472 6.60476 26.9418 6.33951 26.9298 6.07537C28.1344 5.20337 29.1741 4.12369 30 2.88695C28.8971 3.37744 27.7104 3.70756 26.4654 3.8564C27.7362 3.09415 28.7117 1.88823 29.172 0.450793C27.9638 1.1678 26.642 1.67326 25.2636 1.94537C24.1404 0.748537 22.5414 0 20.7708 0C17.3718 0 14.6154 2.75744 14.6154 6.1564C14.6154 6.63964 14.6695 7.10951 14.7751 7.56037C9.65957 7.30287 5.12348 4.85275 2.08768 1.1272C1.54091 2.06685 1.25331 3.13479 1.25427 4.22195C1.25427 6.35817 2.34085 8.24397 3.99329 9.34726C3.01585 9.3174 2.05987 9.05329 1.20573 8.57714C1.20482 8.60299 1.20482 8.62817 1.20482 8.6558C1.20482 11.6377 3.3264 14.1274 6.14274 14.6915C5.6138 14.8356 5.06798 14.9085 4.51976 14.9082C4.12384 14.9082 3.73799 14.8692 3.36299 14.7972C4.14659 17.2437 6.41878 19.024 9.11274 19.0737C7.0061 20.7255 4.35238 21.7093 1.46817 21.7093C0.97753 21.7098 0.487291 21.6813 0 21.624C2.72402 23.3707 5.95854 24.3898 9.435 24.3898" fill="#090076"/>
</svg>
